<svg width="36" height="36" viewBox="0 0 36 36" fill="none" xmlns="http://www.w3.org/2000/svg">
<path fill-rule="evenodd" clip-rule="evenodd" d="M12.7717 11.1233C13.2315 11.1233 13.6464 11.4004 13.8222 11.825C13.9979 12.2497 13.9009 12.7391 13.5747 13.0639C13.2498 13.3888 12.7619 13.4858 12.3372 13.31C11.9125 13.1342 11.6355 12.7194 11.6355 12.2595C11.6355 11.6324 12.1445 11.1247 12.7717 11.1233ZM12.7717 15.5754C14.1119 15.574 15.3198 14.7668 15.8317 13.5279C16.3436 12.289 16.0595 10.8645 15.1117 9.91677C14.1639 8.97037 12.7394 8.6863 11.5005 9.19958C10.263 9.71287 9.45584 10.9208 9.45584 12.261C9.45725 14.0919 10.9422 15.5741 12.7718 15.5755L12.7717 15.5754ZM31.8827 29.7814H4.11766C3.36672 29.7814 2.75782 29.1725 2.75641 28.4202V23.2902L6.46478 19.2218L11.485 24.7356C11.6903 24.962 11.9828 25.0899 12.288 25.0899C12.5945 25.0899 12.887 24.962 13.0923 24.7356L23.1036 13.743L33.2441 24.8763V28.4172C33.2413 29.1682 32.6338 29.7757 31.8828 29.7785L31.8827 29.7814ZM4.11766 6.2212C3.36672 6.2226 2.75782 6.8315 2.75641 7.58243V20.0571L5.66033 16.872C5.86704 16.6456 6.15954 16.5162 6.46612 16.5162C6.77266 16.5162 7.06519 16.6456 7.2719 16.872L12.2921 22.3843L22.2961 11.3946C22.5029 11.1682 22.7954 11.0388 23.1019 11.0388C23.4085 11.0388 23.701 11.1682 23.9077 11.3946L33.244 21.642V7.58218C33.2412 6.83125 32.6337 6.22375 31.8827 6.22094L4.11766 6.2212ZM31.8812 4.04431H4.11766C2.16576 4.04712 0.582337 5.62914 0.580933 7.58243V28.4174C0.58234 30.3707 2.16436 31.9527 4.11766 31.9555H31.8827C33.8345 31.9527 35.4166 30.3693 35.4194 28.4174V7.58243C35.4166 5.63054 33.8345 4.04712 31.8827 4.04431H31.8812Z" fill="black"/>
</svg>
