<svg width="36" height="36" viewBox="0 0 36 36" fill="none" xmlns="http://www.w3.org/2000/svg">
<path d="M25.875 15.75C28.9766 15.75 31.5 13.2266 31.5 10.125C31.5 7.02338 28.9766 4.5 25.875 4.5C22.7734 4.5 20.25 7.02338 20.25 10.125C20.25 10.6886 20.3355 11.2331 20.4908 11.7467L16.569 13.8583C15.3326 12.2743 13.4106 11.25 11.25 11.25C7.52794 11.25 4.5 14.2779 4.5 18C4.5 21.7221 7.52794 24.75 11.25 24.75C13.1209 24.75 14.8151 23.9844 16.0391 22.7503L20.385 25.9262C20.3001 26.2716 20.25 26.6299 20.25 27C20.25 29.4812 22.2688 31.5 24.75 31.5C27.2312 31.5 29.25 29.4812 29.25 27C29.25 24.5188 27.2312 22.5 24.75 22.5C23.4546 22.5 22.2891 23.0529 21.4673 23.9321L17.3312 20.9093C17.7553 20.0273 18 19.0429 18 18C18 17.2434 17.8695 16.5178 17.6383 15.8378L21.5595 13.7267C22.5922 14.9619 24.1431 15.75 25.875 15.75ZM24.75 24.75C25.9909 24.75 27 25.7591 27 27C27 28.2409 25.9909 29.25 24.75 29.25C23.5091 29.25 22.5 28.2409 22.5 27C22.5 25.7591 23.5091 24.75 24.75 24.75ZM11.25 22.5C8.76881 22.5 6.75 20.4812 6.75 18C6.75 15.5188 8.76881 13.5 11.25 13.5C13.7312 13.5 15.75 15.5188 15.75 18C15.75 20.4812 13.7312 22.5 11.25 22.5ZM25.875 6.75C27.7363 6.75 29.25 8.26369 29.25 10.125C29.25 11.9863 27.7363 13.5 25.875 13.5C24.0137 13.5 22.5 11.9863 22.5 10.125C22.5 8.26369 24.0137 6.75 25.875 6.75Z" fill="black"/>
</svg>
