<svg width="36" height="36" viewBox="0 0 36 36" fill="none" xmlns="http://www.w3.org/2000/svg">
<path d="M14.625 18C14.625 16.6346 15.4477 15.4041 16.7091 14.8824C17.9691 14.3593 19.4217 14.6489 20.3865 15.6136C21.3512 16.5783 21.6409 18.0309 21.1177 19.291C20.596 20.5524 19.3655 21.3751 18 21.3751C16.1367 21.3751 14.625 19.8634 14.625 18.0001L14.625 18ZM33.4238 18.7988C29.745 22.5 25.335 25.875 18 25.875C10.665 25.875 6.255 22.5 2.57616 18.7988C2.36382 18.5879 2.24288 18.2996 2.24288 18C2.24288 17.7005 2.36382 17.4122 2.57616 17.2013C6.255 13.5001 10.665 10.1251 18 10.1251C25.335 10.1251 29.745 13.5001 33.4238 17.2013C33.6362 17.4122 33.7571 17.7005 33.7571 18C33.7571 18.2996 33.6362 18.5879 33.4238 18.7988ZM18 12.375C16.508 12.375 15.0778 12.967 14.0231 14.0231C12.967 15.0778 12.375 16.5079 12.375 18C12.375 19.4921 12.967 20.9222 14.0231 21.9769C15.0778 23.033 16.5079 23.6251 18 23.6251C19.4921 23.6251 20.9222 23.033 21.9769 21.9769C23.033 20.9222 23.625 19.4921 23.625 18C23.625 16.5079 23.033 15.0778 21.9769 14.0231C20.9222 12.967 19.4921 12.375 18 12.375ZM4.98384 18C6.85696 19.8492 9.05364 21.3398 11.4638 22.3988C10.5934 21.1008 10.1279 19.5736 10.1279 18.0111C10.1279 16.4486 10.5934 14.9216 11.4638 13.6235C9.04651 14.6585 6.8472 16.1435 4.98384 17.9996V18ZM31.0162 18C29.143 16.1508 26.9464 14.6601 24.5362 13.6011C25.4066 14.8991 25.8721 16.4263 25.8721 17.9888C25.8721 19.5513 25.4066 21.0783 24.5362 22.3765C26.9535 21.3415 29.1528 19.8565 31.0162 18.0003V18Z" fill="black"/>
</svg>
