<svg width="36" height="36" viewBox="0 0 36 36" fill="none" xmlns="http://www.w3.org/2000/svg">
<path d="M27.9788 14.0709C27.7796 13.7182 27.4056 13.5 27 13.5H20.25V4.93481C20.25 4.50844 20.25 3.375 19.125 3.375C18.7301 3.375 18.3634 3.58256 18.1603 3.92119L8.03532 20.7962C7.82663 21.1438 7.82157 21.5769 8.02125 21.9296C8.22094 22.2823 8.59444 22.5 9 22.5H15.75V31.5C15.75 32.0057 16.0875 32.4495 16.5746 32.5845C16.6748 32.6121 16.7754 32.625 16.875 32.625C17.2626 32.625 17.6327 32.4242 17.8397 32.0788L27.9647 15.2038C28.1734 14.8562 28.179 14.4236 27.9788 14.0709ZM18 27.4382V21.375C18 20.754 17.496 20.25 16.875 20.25H10.9868L18 8.56125C18 11.3771 18 14.625 18 14.625C18 14.9231 18.1181 15.2094 18.3296 15.4204C18.5406 15.6313 18.8269 15.75 19.125 15.75H25.0133L18 27.4382Z" fill="black"/>
</svg>
