<svg width="36" height="36" viewBox="0 0 36 36" fill="none" xmlns="http://www.w3.org/2000/svg">
<path d="M22.5 18C22.5 15.5188 20.4812 13.5 18 13.5C15.5188 13.5 13.5 15.5188 13.5 18C13.5 20.4812 15.5188 22.5 18 22.5C20.4812 22.5 22.5 20.4812 22.5 18ZM15.75 18C15.75 16.7591 16.7591 15.75 18 15.75C19.2409 15.75 20.25 16.7591 20.25 18C20.25 19.2409 19.2409 20.25 18 20.25C16.7591 20.25 15.75 19.2409 15.75 18Z" fill="black"/>
<path d="M10.9204 18.7954C11.3597 18.356 11.3597 17.6434 10.9204 17.2046L8.67036 14.9546C8.23105 14.5153 7.51892 14.5153 7.07961 14.9546C6.6403 15.3934 6.6403 16.1066 7.07961 16.5454L7.40924 16.875L4.49999 16.875C3.87898 16.875 3.37498 17.379 3.37498 18C3.37498 18.621 3.87898 19.125 4.49999 19.125L7.40924 19.125L7.07961 19.4546C6.85967 19.6745 6.74999 19.962 6.74999 20.25C6.74999 20.538 6.85967 20.8254 7.07961 21.0454C7.51892 21.4847 8.23105 21.4847 8.67036 21.0454L10.9204 18.7954Z" fill="black"/>
<path d="M28.4546 16.5454L28.7842 16.875L25.875 16.875C25.254 16.875 24.75 17.379 24.75 18C24.75 18.621 25.254 19.125 25.875 19.125L28.7842 19.125L28.4546 19.4546C28.2347 19.6745 28.125 19.962 28.125 20.25C28.125 20.538 28.2347 20.8254 28.4546 21.0454C28.8939 21.4847 29.606 21.4847 30.0454 21.0454L32.2954 18.7954C32.7347 18.356 32.7347 17.6434 32.2954 17.2046L30.0454 14.9546C29.6061 14.5153 28.8939 14.5153 28.4546 14.9546C28.0153 15.3934 28.0153 16.1066 28.4546 16.5454Z" fill="black"/>
<path d="M28.125 29.2894L28.125 26.1079C28.125 25.4869 27.621 24.9829 27 24.9829C26.379 24.9829 25.875 25.4869 25.875 26.1079L25.875 26.5742L23.8179 24.5171C23.3786 24.0778 22.6665 24.0778 22.2272 24.5171C22.0072 24.737 21.8976 25.0245 21.8976 25.3125C21.8976 25.6005 22.0072 25.8879 22.2272 26.1079L24.2843 28.1644L23.8185 28.1644C23.1975 28.1644 22.6935 28.6684 22.6935 29.2894C22.6935 29.9104 23.1975 30.4144 23.8185 30.4144L27 30.4144C27.621 30.4144 28.125 29.9109 28.125 29.2894Z" fill="black"/>
<path d="M25.875 9.46575L25.875 9.93206C25.875 10.5531 26.379 11.0571 27 11.0571C27.621 11.0571 28.125 10.5531 28.125 9.93206L28.125 6.75C28.125 6.129 27.621 5.625 27 5.625L23.8179 5.625C23.1969 5.625 22.6929 6.129 22.6929 6.75C22.6929 7.371 23.1969 7.875 23.8179 7.875L24.2837 7.875L22.2266 9.9315C22.0067 10.1509 21.897 10.4389 21.897 10.7269C21.897 11.0149 22.0067 11.3023 22.2266 11.5222C22.6659 11.9616 23.3781 11.9616 23.8174 11.5222L25.875 9.46575Z" fill="black"/>
</svg>
