<svg width="36" height="36" viewBox="0 0 36 36" fill="none" xmlns="http://www.w3.org/2000/svg">
<path d="M17.9845 7.33352C13.756 7.33352 10.7352 11.7774 12.6155 15.8724C14.7403 20.4948 21.2598 20.4904 23.3845 15.8724C25.2042 11.9167 22.4662 7.3886 17.9845 7.33352ZM8.12376 31.0132C7.70188 30.9837 7.45578 30.6631 7.45578 30.2145H7.45157C7.45157 28.1909 8.01407 26.3024 8.98157 24.6921H3.65321C3.21869 24.6921 2.94304 24.3757 2.93461 23.906C2.85024 20.4719 5.16492 17.2348 8.37529 16.0479C3.12433 13.0821 5.23231 4.98366 11.223 4.98366C12.6756 4.98366 14.0538 5.52506 15.1142 6.48274C16.9437 5.70085 19.0558 5.70085 20.8854 6.48274C24.6286 3.10772 30.6277 5.78945 30.6277 10.8884C30.6277 13.0639 29.445 15.0158 27.6239 16.0465C30.9061 17.2587 33.0182 20.3215 33.0646 23.9723C33.0646 24.3688 32.744 24.6909 32.346 24.6909L26.9867 24.6923C27.9415 26.2771 28.5504 28.3344 28.5504 30.2989C28.5504 30.6955 28.2298 31.0175 27.8319 31.0175L8.12376 31.0132ZM10.0208 23.2563C11.2878 21.7783 12.9486 20.6618 14.8329 20.0627C13.4477 19.4032 12.3059 18.3176 11.5591 16.983C7.83673 16.8185 4.73605 19.6071 4.40269 23.2564L10.0208 23.2563ZM21.157 20.0712C23.0329 20.6674 24.6853 21.7868 25.9483 23.2563H31.6013C31.2681 19.6056 28.1673 16.8184 24.4449 16.983C23.6954 18.3217 22.5465 19.4073 21.1571 20.0711L21.157 20.0712ZM27.0592 29.5802C26.5389 21.7938 17.0973 18.098 11.5511 23.7036C10.0422 25.2293 9.05926 27.3457 8.91022 29.5802H27.0592ZM25.1158 15.3476C28.872 15.0607 30.5608 10.4131 27.9002 7.72567C26.3786 6.18725 23.9837 5.98475 22.2302 7.23629C24.7783 9.03208 25.9695 12.268 25.1158 15.3474V15.3476ZM13.7729 7.23643C10.8704 5.16222 6.81052 7.24907 6.81052 10.8912C6.81052 13.2269 8.58521 15.1705 10.8872 15.3476C10.0336 12.2679 11.2247 9.03211 13.7728 7.23643H13.7729Z" fill="black" stroke="black"/>
</svg>
